<svg xmlns="http://www.w3.org/2000/svg" version="1.1" xmlns:xlink="http://www.w3.org/1999/xlink" xmlns:svgjs="http://svgjs.dev/svgjs" viewBox="0 0 800 800" width="800" height="800"><g stroke-width="0.75" stroke="rgb(255,255,255)" fill="none"><rect width="266.6666666666667" height="200" x="0" y="0"></rect><rect width="266.6666666666667" height="200" x="266.6666666666667" y="0"></rect><rect width="266.6666666666667" height="200" x="533.3333333333334" y="0"></rect><rect width="266.6666666666667" height="200" x="800" y="0"></rect><rect width="266.6666666666667" height="200" x="0" y="200"></rect><rect width="266.6666666666667" height="200" x="266.6666666666667" y="200"></rect><rect width="266.6666666666667" height="200" x="533.3333333333334" y="200"></rect><rect width="266.6666666666667" height="200" x="800" y="200"></rect><rect width="266.6666666666667" height="200" x="0" y="400"></rect><rect width="266.6666666666667" height="200" x="266.6666666666667" y="400"></rect><rect width="266.6666666666667" height="200" x="533.3333333333334" y="400"></rect><rect width="266.6666666666667" height="200" x="800" y="400"></rect><rect width="266.6666666666667" height="200" x="0" y="600"></rect><rect width="266.6666666666667" height="200" x="266.6666666666667" y="600"></rect><rect width="266.6666666666667" height="200" x="533.3333333333334" y="600"></rect><rect width="266.6666666666667" height="200" x="800" y="600"></rect><rect width="266.6666666666667" height="200" x="0" y="800"></rect><rect width="266.6666666666667" height="200" x="266.6666666666667" y="800"></rect><rect width="266.6666666666667" height="200" x="533.3333333333334" y="800"></rect><rect width="266.6666666666667" height="200" x="800" y="800"></rect></g></svg>