<?xml version="1.0" encoding="UTF-8"?>
<svg id="Layer_1" data-name="Layer 1" xmlns="http://www.w3.org/2000/svg" viewBox="0 0 177 865">
  <defs>
    <style>
      .cls-1 {
        fill: none;
        stroke: #000;
        stroke-miterlimit: 10;
      }
    </style>
  </defs>
  <line class="cls-1" y1=".5" x2="177" y2=".5"/>
  <line class="cls-1" y1="36.5" x2="126" y2="36.5"/>
  <line class="cls-1" y1="72.5" x2="126" y2="72.5"/>
  <line class="cls-1" y1="108.5" x2="126" y2="108.5"/>
  <line class="cls-1" y1="144.5" x2="126" y2="144.5"/>
  <line class="cls-1" y1="180.5" x2="177" y2="180.5"/>
  <line class="cls-1" y1="216.5" x2="126" y2="216.5"/>
  <line class="cls-1" y1="252.5" x2="126" y2="252.5"/>
  <line class="cls-1" y1="288.5" x2="126" y2="288.5"/>
  <line class="cls-1" y1="324.5" x2="126" y2="324.5"/>
  <line class="cls-1" y1="360.5" x2="177" y2="360.5"/>
  <line class="cls-1" y1="396.5" x2="126" y2="396.5"/>
  <line class="cls-1" y1="432.5" x2="126" y2="432.5"/>
  <line class="cls-1" y1="468.5" x2="126" y2="468.5"/>
  <line class="cls-1" y1="504.5" x2="126" y2="504.5"/>
  <line class="cls-1" y1="540.5" x2="177" y2="540.5"/>
  <line class="cls-1" y1="576.5" x2="126" y2="576.5"/>
  <line class="cls-1" y1="612.5" x2="126" y2="612.5"/>
  <line class="cls-1" y1="648.5" x2="126" y2="648.5"/>
  <line class="cls-1" y1="684.5" x2="126" y2="684.5"/>
  <line class="cls-1" y1="720.5" x2="177" y2="720.5"/>
  <line class="cls-1" y1="756.5" x2="126" y2="756.5"/>
  <line class="cls-1" y1="792.5" x2="126" y2="792.5"/>
  <line class="cls-1" y1="828.5" x2="126" y2="828.5"/>
  <line class="cls-1" y1="864.5" x2="126" y2="864.5"/>
</svg>